<svg width="106" height="106" viewBox="0 0 106 106" fill="none" xmlns="http://www.w3.org/2000/svg">
<circle cx="53" cy="53" r="51.5" stroke="white" stroke-width="3" stroke-dasharray="6 6"/>
<path d="M49.8 48.1999C49.8 47.7756 49.9686 47.3686 50.2686 47.0685C50.5687 46.7685 50.9756 46.5999 51.4 46.5999H62.6C63.0243 46.5999 63.4313 46.7685 63.7314 47.0685C64.0314 47.3686 64.2 47.7756 64.2 48.1999C64.2 48.6242 64.0314 49.0312 63.7314 49.3313C63.4313 49.6313 63.0243 49.7999 62.6 49.7999H51.4C50.9756 49.7999 50.5687 49.6313 50.2686 49.3313C49.9686 49.0312 49.8 48.6242 49.8 48.1999ZM49.8 57.7999C49.8 57.3756 49.9686 56.9686 50.2686 56.6685C50.5687 56.3685 50.9756 56.1999 51.4 56.1999H62.6C63.0243 56.1999 63.4313 56.3685 63.7314 56.6685C64.0314 56.9686 64.2 57.3756 64.2 57.7999C64.2 58.2242 64.0314 58.6312 63.7314 58.9313C63.4313 59.2313 63.0243 59.3999 62.6 59.3999H51.4C50.9756 59.3999 50.5687 59.2313 50.2686 58.9313C49.9686 58.6312 49.8 58.2242 49.8 57.7999ZM49.8 67.3999C49.8 66.9756 49.9686 66.5686 50.2686 66.2685C50.5687 65.9685 50.9756 65.7999 51.4 65.7999H62.6C63.0243 65.7999 63.4313 65.9685 63.7314 66.2685C64.0314 66.5686 64.2 66.9756 64.2 67.3999C64.2 67.8242 64.0314 68.2312 63.7314 68.5313C63.4313 68.8313 63.0243 68.9999 62.6 68.9999H51.4C50.9756 68.9999 50.5687 68.8313 50.2686 68.5313C49.9686 68.2312 49.8 67.8242 49.8 67.3999ZM46.6 48.1999C46.6 48.8364 46.3471 49.4469 45.897 49.897C45.447 50.347 44.8365 50.5999 44.2 50.5999C43.5635 50.5999 42.953 50.347 42.5029 49.897C42.0528 49.4469 41.8 48.8364 41.8 48.1999C41.8 47.5634 42.0528 46.9529 42.5029 46.5028C42.953 46.0528 43.5635 45.7999 44.2 45.7999C44.8365 45.7999 45.447 46.0528 45.897 46.5028C46.3471 46.9529 46.6 47.5634 46.6 48.1999ZM46.6 57.7999C46.6 58.4364 46.3471 59.0469 45.897 59.497C45.447 59.947 44.8365 60.1999 44.2 60.1999C43.5635 60.1999 42.953 59.947 42.5029 59.497C42.0528 59.0469 41.8 58.4364 41.8 57.7999C41.8 57.1634 42.0528 56.5529 42.5029 56.1028C42.953 55.6528 43.5635 55.3999 44.2 55.3999C44.8365 55.3999 45.447 55.6528 45.897 56.1028C46.3471 56.5529 46.6 57.1634 46.6 57.7999ZM44.2 69.7999C44.8365 69.7999 45.447 69.547 45.897 69.097C46.3471 68.6469 46.6 68.0364 46.6 67.3999C46.6 66.7634 46.3471 66.1529 45.897 65.7028C45.447 65.2528 44.8365 64.9999 44.2 64.9999C43.5635 64.9999 42.953 65.2528 42.5029 65.7028C42.0528 66.1529 41.8 66.7634 41.8 67.3999C41.8 68.0364 42.0528 68.6469 42.5029 69.097C42.953 69.547 43.5635 69.7999 44.2 69.7999ZM43.672 30.5999C44.003 29.6637 44.6163 28.8531 45.4272 28.28C46.2382 27.7069 47.2069 27.3994 48.2 27.3999H57.8C58.793 27.3994 59.7618 27.7069 60.5728 28.28C61.3837 28.8531 61.997 29.6637 62.328 30.5999H67.4C68.673 30.5999 69.8939 31.1056 70.7941 32.0058C71.6943 32.906 72.2 34.1269 72.2 35.3999V73.7999C72.2 75.0729 71.6943 76.2938 70.7941 77.194C69.8939 78.0942 68.673 78.5999 67.4 78.5999H38.6C37.3269 78.5999 36.106 78.0942 35.2059 77.194C34.3057 76.2938 33.8 75.0729 33.8 73.7999V35.3999C33.8 34.1269 34.3057 32.906 35.2059 32.0058C36.106 31.1056 37.3269 30.5999 38.6 30.5999H43.672ZM48.2 30.5999C47.7756 30.5999 47.3687 30.7685 47.0686 31.0685C46.7686 31.3686 46.6 31.7756 46.6 32.1999C46.6 32.6242 46.7686 33.0312 47.0686 33.3313C47.3687 33.6313 47.7756 33.7999 48.2 33.7999H57.8C58.2243 33.7999 58.6313 33.6313 58.9314 33.3313C59.2314 33.0312 59.4 32.6242 59.4 32.1999C59.4 31.7756 59.2314 31.3686 58.9314 31.0685C58.6313 30.7685 58.2243 30.5999 57.8 30.5999H48.2ZM43.672 33.7999H38.6C38.1756 33.7999 37.7687 33.9685 37.4686 34.2685C37.1686 34.5686 37 34.9756 37 35.3999V73.7999C37 74.2242 37.1686 74.6312 37.4686 74.9313C37.7687 75.2313 38.1756 75.3999 38.6 75.3999H67.4C67.8243 75.3999 68.2313 75.2313 68.5314 74.9313C68.8314 74.6312 69 74.2242 69 73.7999V35.3999C69 34.9756 68.8314 34.5686 68.5314 34.2685C68.2313 33.9685 67.8243 33.7999 67.4 33.7999H62.328C61.997 34.7362 61.3837 35.5467 60.5728 36.1198C59.7618 36.6929 58.793 37.0004 57.8 36.9999H48.2C47.2069 37.0004 46.2382 36.6929 45.4272 36.1198C44.6163 35.5467 44.003 34.7362 43.672 33.7999V33.7999Z" fill="white"/>
</svg>
